<svg xmlns="http://www.w3.org/2000/svg" width="512" height="512" viewBox="0 0 512 512" version="1.1"><path d="" stroke="none" fill="#080404" fill-rule="evenodd"/>
<path  d="M 46.219 1.553 C 26.137 6.959, 10.090 22.218, 3.239 42.422 L 0.500 50.500 0.500 256 L 0.500 461.500 3.239 469.578 C 9.440 487.863, 21.866 500.877, 40.500 508.599 L 47.500 511.500 165.261 511.770 C 295.487 512.069, 286.837 512.486, 291.100 505.701 C 292.638 503.253, 293.020 501.263, 292.723 497.242 C 292.327 491.885, 290.108 488.327, 285.500 485.658 C 284.030 484.807, 252.894 484.368, 168 484 L 52.500 483.500 47.500 481.024 C 41.119 477.864, 35.067 471.812, 31.948 465.474 L 29.500 460.500 29.500 256 L 29.500 51.500 32.161 46.460 C 35.397 40.328, 42.521 33.574, 48.824 30.661 L 53.500 28.500 202.500 28.500 L 351.500 28.500 356.176 30.661 C 362.479 33.574, 369.603 40.328, 372.839 46.460 L 375.500 51.500 376 149.045 C 376.471 240.896, 376.605 246.750, 378.304 249.342 C 383.862 257.822, 396.932 258.080, 401.974 249.810 C 403.962 246.550, 403.993 245.028, 403.996 149.144 C 404 41.119, 404.312 46.533, 397.296 32.587 C 392.449 22.953, 381.047 11.551, 371.413 6.704 C 357.171 -0.460, 368.746 -0.007, 201.856 0.066 C 75.190 0.121, 50.668 0.356, 46.219 1.553 M 79.415 120.421 C 69.968 124.535, 68.494 136.836, 76.596 143.950 L 80.070 147 200.285 146.996 C 317.752 146.993, 320.573 146.948, 323.701 145.040 C 329.871 141.279, 332.057 132.291, 328.335 125.989 C 327.350 124.322, 324.704 122.067, 322.456 120.979 C 318.453 119.041, 315.945 119.001, 200.434 119.039 C 103.989 119.071, 81.938 119.323, 79.415 120.421 M 81.500 226.932 C 75.533 229.398, 72.101 236.394, 73.417 243.409 C 74.207 247.623, 79.317 252.789, 83.428 253.530 C 85.117 253.835, 116.530 253.953, 153.234 253.792 L 219.967 253.500 223.734 249.733 C 227.247 246.220, 227.500 245.566, 227.500 240 C 227.500 234.434, 227.247 233.780, 223.734 230.267 L 219.967 226.500 151.734 226.303 C 114.205 226.194, 82.600 226.477, 81.500 226.932 M 373 299.456 C 372.175 299.656, 368.125 300.366, 364 301.034 C 345.836 303.973, 322.879 314.426, 304.883 327.950 C 282.897 344.472, 257 373.828, 257 382.229 C 257 389.968, 272.577 412.678, 289.451 429.539 C 303.443 443.519, 312.228 450.103, 326.500 457.305 C 346.268 467.281, 360.822 470.538, 385 470.400 C 400.491 470.311, 403.627 470, 412.313 467.691 C 442.923 459.556, 472.560 438.799, 495.094 409.718 C 507.693 393.457, 511.467 386.298, 511.111 379.337 C 510.837 373.982, 485.490 345.127, 470 332.534 C 443.708 311.162, 416.886 300.354, 388 299.493 C 380.575 299.272, 373.825 299.255, 373 299.456 M 373 323.090 C 357.096 325.138, 336.010 334.476, 319.500 346.784 C 310.130 353.769, 293.142 370.001, 286.497 378.317 L 282.648 383.135 284.456 386.317 C 288.501 393.439, 300.398 408.106, 308.200 415.590 C 348.140 453.900, 402.420 457.935, 445.500 425.795 C 455.160 418.588, 471.435 402.168, 478.834 392.163 C 482.226 387.578, 485 383.358, 485 382.786 C 485 380.944, 471.083 365.285, 463.172 358.225 C 439.683 337.264, 417.605 325.894, 394.854 323.041 C 385.563 321.876, 382.378 321.883, 373 323.090 M 379.852 365.391 C 360.846 372.181, 359.129 398.407, 377.105 407.365 C 388.808 413.197, 402.754 408.314, 408.134 396.500 C 410.508 391.289, 410.498 382.694, 408.114 377.444 C 403.410 367.088, 390.507 361.585, 379.852 365.391" 
stroke="none" fill="white" fill-rule="evenodd"/>
</svg>